<svg id="Layer_1" data-name="Layer 1" xmlns="http://www.w3.org/2000/svg" viewBox="0 0 364.8 300"><defs><style>.cls-1{fill:#353575;}.cls-1,.cls-3,.cls-4,.cls-5,.cls-6,.cls-7,.cls-8{fill-rule:evenodd;}.cls-2,.cls-6{fill:#ed761a;}.cls-3{fill:#38a545;}.cls-4{fill:#1e1e1c;}.cls-5{fill:#fff;}.cls-7{fill:#1f5190;}.cls-8{fill:#e9552a;}</style></defs><title>Skill India</title><path class="cls-1" d="M0,222.58l6.6-9.34a24.68,24.68,0,0,0,17.91,7.67c6.65,0,9.78-3,9.78-6.24,0-9.82-32.43-2.95-32.43-24.19,0-9.33,8.11-17.13,21.39-17.13,8.92,0,16.37,2.66,21.92,7.81l-6.66,9a24.25,24.25,0,0,0-16.36-6.08c-5.07,0-7.89,2.16-7.89,5.59,0,8.82,32.3,2.86,32.3,23.85,0,10.37-7.42,18.09-22.54,18.09-10.9,0-18.65-3.66-24-9Z"/><polygon class="cls-1" points="80.73 230.51 69.93 214.84 65.05 220.06 65.05 230.51 54.3 230.51 54.3 174.22 65.05 174.22 65.05 207.9 80.48 189.78 93.62 189.78 77.51 208.24 94.13 230.51 80.73 230.51 80.73 230.51"/><polygon class="cls-1" points="185.62 174.22 197.6 174.22 197.6 230.51 185.62 230.51 185.62 174.22 185.62 174.22"/><path class="cls-1" d="M236,230.52V205.9c0-5.61-3-7.67-7.47-7.67a12.16,12.16,0,0,0-9.31,4.77v27.52H208.47V189.78h10.74V195a19,19,0,0,1,14.3-6.24c9,0,13.32,5.06,13.32,13v28.8Z"/><path class="cls-1" d="M285.42,230.52v-5.24a15.55,15.55,0,0,1-12.59,6.26c-10.2,0-18.1-7.72-18.1-21.41,0-13.3,7.73-21.39,18.1-21.39A15.38,15.38,0,0,1,285.42,195V174.22h10.75v56.3Zm0-13.12V202.94a11.9,11.9,0,0,0-9.19-4.71c-6.18,0-10.38,4.91-10.38,11.9s4.2,11.92,10.38,11.92A11.79,11.79,0,0,0,285.42,217.4Z"/><path class="cls-1" d="M305.84,178.93a6.4,6.4,0,1,1,6.36,6.42,6.39,6.39,0,0,1-6.36-6.42Zm1,10.85h10.76v40.74H306.87V189.78Zm0,40.74Z"/><path class="cls-1" d="M352.7,230.52v-4.28c-2.79,3.39-7.62,5.3-12.91,5.3-6.47,0-14.1-4.38-14.1-13.5,0-9.64,7.63-13.17,14.1-13.17,5.5,0,10.24,1.76,12.91,5.06v-5.15c0-4.17-3.58-6.9-8.92-6.9a17.13,17.13,0,0,0-11.73,4.79l-4.21-7.47a26.06,26.06,0,0,1,17.78-6.42c9.34,0,17.9,3.72,17.9,15.47V230.6Zm0-9.79v-5.07c-1.74-2.35-5.13-3.58-8.59-3.58-4.22,0-7.69,2.26-7.69,6.16s3.47,6.08,7.69,6.08c3.46,0,6.85-1.17,8.59-3.53Z"/><polygon class="cls-2" points="104.91 179.99 96.98 190.72 99.54 190.72 99.54 230.51 110.25 230.51 110.25 190.72 112.85 190.72 104.91 179.99 104.91 179.99"/><polygon class="cls-3" points="126.28 165.11 118.37 175.96 120.91 175.96 120.91 230.51 131.67 230.51 131.67 175.96 134.22 175.96 126.28 165.11 126.28 165.11"/><polygon class="cls-1" points="147.63 165.11 139.72 175.96 142.28 175.96 142.28 230.51 153.01 230.51 153.01 175.96 155.59 175.96 147.63 165.11 147.63 165.11"/><path class="cls-4" d="M21.94,271.09a3.16,3.16,0,0,0-3.17,3.14.86.86,0,0,0,0,.16v10.36H13.64v-5.07h-.16a6.28,6.28,0,0,1-4.06,1.38,6.79,6.79,0,0,1-6.93-6.64,4.17,4.17,0,0,1,0-.5c0-5.13,4.17-7.64,8.48-7.19l.87,4.46c-2.44-.58-4.27.63-4.27,2.84a2.76,2.76,0,0,0,2.76,2.77h.2a3.11,3.11,0,0,0,3.05-3.16c0-.08,0-.15,0-.22v-9.33H.39v-4H31.94v4H18.77v4.24h.14A5.91,5.91,0,0,1,23,266.86a6.74,6.74,0,0,1,6.9,6.58c0,.17,0,.34,0,.52,0,5.13-4.14,7.63-8.47,7.29l-.83-4.46c2.46.52,4.2-.76,4.2-2.94a2.61,2.61,0,0,0-2.48-2.73H22Z"/><path class="cls-4" d="M38.51,264.09v20.66H33.23V264.09H29.39v-4h1.75v-.24a38.59,38.59,0,0,1-11-7.57l4.44-2.78L34.7,260.1H35l-6.25-9.66,5.57-1.16,4,10.88h4v4Z"/><path class="cls-4" d="M47.41,270.79a4.93,4.93,0,0,1-3.83-5.07c0-3.23,2.9-6,6.9-6,5.49,0,8,3.65,8,7.47,0,6-4.75,8.77-9,8.92v.14a22.38,22.38,0,0,1,4.78,3.47l3.44,3-4.29,3-9-8.32-3.15-2.31,2.93-3.85a8.18,8.18,0,0,0,3.76.85c3.21,0,5.35-1.81,5.35-4.89,0-2.24-1.13-3.39-2.48-3.39a1.8,1.8,0,0,0-2,1.55,1.23,1.23,0,0,0,0,.2,2.28,2.28,0,0,0,1.72,2.2l-3,3Zm14-10.68H70.5v4H66.62v20.66H61.38Z"/><path class="cls-4" d="M88.16,267.94v-3.85H67.89v-4H97.28v4H93.44v20.66H88.16V272.08a3.61,3.61,0,0,0-1.8-.57c-1.47,0-2.11,1-2.11,3v3.45H79.54v-3.74c0-1.65-.8-2.6-2-2.6-1,0-2.2.64-2.2,3.23,0,2.26,1.21,5.13,5.29,7.3l-3.28,3.37a12.3,12.3,0,0,1-7.19-10.94c0-5,3.47-7.3,6.8-7.3,2.29,0,4,.93,4.71,2.72h.14a3.63,3.63,0,0,1,3.59-2.89,3.83,3.83,0,0,1,2.7.86Z"/><path class="cls-4" d="M118,260.11h12v4h-3.87v20.66h-5.07V274.62h-6.2v4.05h-4.76a8.16,8.16,0,0,1-3-6.28l2.82-2.12v-4.18c0-1.46-.67-1.95-1.94-1.95h-2.52v-4h3.52c2.5,0,6,.93,6,5.62v4.4h6v-6.08h-3v-4Z"/><polygon class="cls-4" points="136.59 264.09 136.59 284.78 131.39 284.78 131.39 264.09 127.44 264.09 127.44 260.13 140.39 260.13 140.39 264.09 136.59 264.09 136.59 264.09"/><path class="cls-4" d="M147.58,275.41a37.47,37.47,0,0,1,3,3.26l3.38,4.05-4.27,2.67-10.61-13.18,3.9-3c1.11,1.64,1.92,2.25,3,2.25.84,0,1.5-.46,1.5-1.8v-5.57h-9.69v-3.92H156.3v4h-3.68v5.66c0,3.61-2.14,5.07-4.71,5.41-.1,0-.21.06-.35.06v.19Z"/><path class="cls-4" d="M162.23,285.28a13,13,0,0,1-5.87-10.47c0-5.37,4-7.36,7.63-7.36h4.61v-3.36H153.69v-4h24v4h-3.92v20.66H168.6V271.83h-3.69a2.93,2.93,0,0,0-3.21,2.65,2.69,2.69,0,0,0,0,.49c0,2.81,1.63,5.26,4.25,7l-3.71,3.27Z"/><path class="cls-4" d="M219.4,271.09a3.12,3.12,0,0,0-3.16,3.08,1.55,1.55,0,0,0,0,.22v10.36h-5.18v-5.07h-.14a6.3,6.3,0,0,1-4.06,1.38,6.8,6.8,0,0,1-7-6.63c0-.17,0-.34,0-.51,0-5.13,4.15-7.64,8.53-7.19l.8,4.46c-2.39-.58-4.23.63-4.23,2.84a2.74,2.74,0,0,0,2.7,2.77h.2a3.08,3.08,0,0,0,3.11-3.06c0-.11,0-.21,0-.32v-9.33H199.38v-4h30.05v4H216.26v4.24h.1a6.18,6.18,0,0,1,4-1.46,6.74,6.74,0,0,1,6.87,6.61c0,.16,0,.32,0,.49,0,5.13-4.11,7.63-8.47,7.29l-.76-4.46c2.41.52,4.14-.76,4.14-2.94a2.62,2.62,0,0,0-2.5-2.73h-.27Z"/><path class="cls-4" d="M234.52,270.79a4.91,4.91,0,0,1-3.8-5.07c0-3.23,2.94-6,6.85-6,5.51,0,7.93,3.65,7.93,7.47,0,6-4.68,8.77-9,8.92v.14a23.43,23.43,0,0,1,4.85,3.47l3.39,3-4.28,3-9-8.32-3.1-2.31,2.89-3.85a8.38,8.38,0,0,0,3.8.85c3.14,0,5.28-1.81,5.28-4.89,0-2.24-1.08-3.39-2.45-3.39a1.79,1.79,0,0,0-2,1.53c0,.07,0,.14,0,.22a2.38,2.38,0,0,0,1.75,2.2l-3,3Zm14-10.68h9v4h-3.81v20.66h-5.22Z"/><path class="cls-4" d="M275.26,267.94v-3.85H255v-4h29.38v4h-3.89v20.66h-5.22V272.08a3.39,3.39,0,0,0-1.72-.57c-1.52,0-2.18,1-2.18,3v3.45h-4.76v-3.74c0-1.65-.83-2.6-2-2.6-1,0-2.23.64-2.23,3.23,0,2.26,1.22,5.13,5.31,7.3l-3.33,3.37a12.4,12.4,0,0,1-7.09-10.94c0-5,3.46-7.3,6.86-7.3,2.22,0,3.92.93,4.66,2.72h.14a3.57,3.57,0,0,1,3.55-2.89,3.76,3.76,0,0,1,2.71.86Z"/><path class="cls-4" d="M305.14,260.11h12v4h-3.86v20.66h-5.16V274.62H302v4.05h-4.77a8.11,8.11,0,0,1-2.94-6.28l2.8-2.12v-4.18c0-1.46-.68-1.95-2-1.95h-3.36v-4h4.39c2.53,0,6.08.93,6.08,5.62v4.4h6v-6.08h-3v-4Z"/><polygon class="cls-4" points="323.67 264.09 323.67 284.78 318.44 284.78 318.44 264.09 314.6 264.09 314.6 260.13 327.52 260.13 327.52 264.09 323.67 264.09 323.67 264.09"/><path class="cls-4" d="M334.71,275.41c.75.74,1.49,1.53,3,3.26l3.35,4.05-4.2,2.67-10.64-13.18,3.9-3c1.12,1.64,1.88,2.25,2.95,2.25.88,0,1.51-.46,1.51-1.8v-5.57H324.9v-3.92h18.48v4h-3.6v5.66c0,3.61-2.16,5.07-4.72,5.41l-.35.06Z"/><path class="cls-4" d="M349.33,285.28a13.11,13.11,0,0,1-5.81-10.47c0-5.37,4.06-7.36,7.63-7.36h4.53v-3.36H340.8v-4h24v4h-3.93v20.66h-5.19V271.83H352a2.94,2.94,0,0,0-3.22,2.64,2.79,2.79,0,0,0,0,.5c0,2.81,1.66,5.26,4.22,7l-3.67,3.27Z"/><path class="cls-4" d="M215.73,300a16.1,16.1,0,0,1-12.44-6.41l3.61-3.34c2.38,3.42,5.07,5.71,8.73,5.71,1.67,0,3.26-.71,3.26-2.51a1.87,1.87,0,0,0-1.8-1.94h-.17a2.81,2.81,0,0,0-2.56,1.55L211,290.13a7.33,7.33,0,0,1,6.3-2.76c3.77,0,6.68,2.21,6.68,6,0,3.28-2.38,6.62-8.25,6.62Z"/><polygon class="cls-4" points="192.81 275.66 182.57 275.66 182.57 270.48 192.81 270.48 192.81 275.66 192.81 275.66"/><path class="cls-5" d="M237,2.92H127.86a3.94,3.94,0,0,0-3.93,3.94V99.31a3.93,3.93,0,0,0,3.93,3.93H237a3.93,3.93,0,0,0,3.92-3.93V6.86A3.94,3.94,0,0,0,237,2.92ZM161.84,67.1c-4.18,0-4.18-6.46,0-6.46S166,67.1,161.84,67.1Z"/><path class="cls-1" d="M182,16.66a38.51,38.51,0,1,0,38.44,38.57v-.06A38.5,38.5,0,0,0,182,16.66ZM161.84,67.1c-4.18,0-4.18-6.45,0-6.45S166,67.1,161.84,67.1Z"/><path class="cls-6" d="M194,38.82l4.61-5.23L200,32a8.23,8.23,0,0,0,9.87-2.33,12.27,12.27,0,0,0,2.37-11.55l-5.48,6.33L201.1,23l-1.65-6L205,10.7a10.13,10.13,0,0,0-10.58,3.15,10,10,0,0,0-1.62,10.74l.19-.25-7.72,8.82,8.79,5.66Z"/><path class="cls-7" d="M194.44,39.23l-.81-.8,6.19-7.1.37.16a7.8,7.8,0,0,0,9.25-2.19,11.52,11.52,0,0,0,2.51-10l-5.07,5.86-6.24-1.57-1.83-6.66,5.06-5.82a9.6,9.6,0,0,0-9.12,3.22,9.37,9.37,0,0,0-1.55,10.13l-.17.09.32.3-.81,1-7,7.86-.81-.84L192,24.56A10.86,10.86,0,0,1,205.1,10.13l.91.26-6,6.84,1.46,5.28,5,1.3,6-6.81.32.95a12.81,12.81,0,0,1-2.49,12.16,8.8,8.8,0,0,1-10.13,2.61L199.06,34l-4.61,5.23Z"/><path class="cls-6" d="M154.74,66.69,143.25,78.85l-.05.06a4.77,4.77,0,0,0,.16,6.74,4.71,4.71,0,0,0,6.66-.14l0,0a.12.12,0,0,0,.1-.07L161.59,73.2l-6.85-6.54ZM147,84.05a1.52,1.52,0,0,1-2-.79l0-.07a1.57,1.57,0,0,1,.85-2,1.48,1.48,0,0,1,2,.71l.06.15a1.54,1.54,0,0,1-.8,2l0,0Z"/><path class="cls-7" d="M146.65,87.52h0A5.15,5.15,0,0,1,143,86.05a5.33,5.33,0,0,1-.19-7.49h0l11.92-12.69,7.6,7.3-11.8,12.61c-.08,0-.09.07-.09.07a5.06,5.06,0,0,1-3.79,1.65Zm-3.36-7.85.29-.38,11.15-11.9,6.08,5.91L149.72,85.06a.12.12,0,0,1-.1,0,4,4,0,0,1-3,1.35,4.08,4.08,0,0,1-2.9-1.17,4.23,4.23,0,0,1-.46-5.62Zm3.12,5.07a2.13,2.13,0,0,1-2.06-2.18,2.26,2.26,0,0,1,.15-.73,2.3,2.3,0,0,1,1.15-1.15,1.76,1.76,0,0,1,.76-.17,2,2,0,0,1,1.94,1.36,2.09,2.09,0,0,1-1.13,2.72A2.28,2.28,0,0,1,146.41,84.74Zm0-3.15a1.23,1.23,0,0,0-.38.08,1.09,1.09,0,0,0-.57.55,1.36,1.36,0,0,0,0,.8,1.07,1.07,0,0,0,1.33.59,1,1,0,0,0-.38-2Z"/><path class="cls-3" d="M218.74,33.16,132.55,66.43,135.4,74,159,64.9a3.1,3.1,0,0,1,3.22-3.64,3,3,0,0,1,2.57,1.42l56.87-21.94,5.51-6.54-8.4-1.07Z"/><path class="cls-1" d="M193.75,39.61l-13.5-8.11-11.52,5.26-8.68,4.06L149.47,58.63,156.56,66l8.73,9,31.76-25.13c.22-8.11-3.3-10.25-3.3-10.25ZM161.84,67.1c-4.18,0-4.18-6.46,0-6.46S166,67.1,161.84,67.1Z"/><polygon class="cls-1" points="223.79 33.65 224.95 36.32 226.76 33.92 223.79 33.65 223.79 33.65"/><path class="cls-7" d="M218.56,32.56,131.81,66.5l3.6,8.32,22.88-8.7c-.16-.41-1.11-.69-1.11-1.09l-21,8.2-2.63-6.08,85.23-33.33,7.09.73-4.5,5.33L164.26,62.17c.31.32.7.45.86.86l57-22.2,6.2-7.37-9.81-1Z"/><polygon class="cls-5" points="224.22 34.37 218.74 33.83 221.37 39.88 224.86 35.74 224.22 34.37 224.22 34.37"/><polygon class="cls-8" points="218.74 33.83 221.37 39.88 218.74 33.83 218.74 33.83"/><polygon class="cls-7" points="220.74 40.15 218.11 34.08 219.4 33.58 221.98 39.63 220.74 40.15 220.74 40.15"/><path class="cls-1" d="M238.88,128.83a1.84,1.84,0,0,0-1.48-.77H129.18a1.8,1.8,0,0,0-1.38.66L117,141.51a1.89,1.89,0,0,0-.26,2,1.84,1.84,0,0,0,1.65,1H246.44a1.87,1.87,0,0,0,1.58-1,1.77,1.77,0,0,0-.13-1.84l-9-12.84Zm-3.45,1.5,1,1.77h-4.23l-.88-1.77Zm-45.78,0H194l.08,1.77h-4.5Zm-.18,4.7h4.73l.07,1.77h-4.84V135Zm-8.1-4.7h4.36l-.11,1.77h-4.54l.24-1.77Zm-.65,4.7h4.72l-.12,1.77h-4.95l.27-1.77Zm-7.63-4.7h4.24l-.3,1.77h-4.45l.45-1.77ZM171.9,135h4.7l-.3,1.77h-4.84l.44-1.77Zm-7.09-4.7h4.3l-.52,1.77h-4.43l.61-1.77Zm-1.66,4.7h4.63l-.58,1.77h-4.77l.65-1.77Zm-6.6-4.7h4.21l-.7,1.77h-4.35Zm-2.21,4.7h4.58l-.67,1.77h-4.71Zm-6.08-4.7h4.13l-.89,1.77h-4.25l1-1.77Zm-8.26,0h4.06l-1.18,1.77h-4.15l1.2-1.77Zm-8.25,0h3.9l-1.26,1.77h-4l1.4-1.77Zm-3.9,11h-4.78l1.41-1.77h4.63Zm3.22-4.53h-4.5L128,135h4.29L131,136.8Zm6.35,4.53h-5l1.2-1.77h4.76l-1.06,1.77Zm2.73-4.53H135.6l1.18-1.77h4.41l-1,1.77Zm6.8,4.53h-5.08l1-1.77h4.85l-.89,1.77Zm2.23-4.53h-4.64l1-1.77H150l-.87,1.77Zm2.22,4.53.83-1.77h42.25l.06,1.77Zm46.62-11,.13,1.77h4.49l-.27-1.77Zm.34,4.7h8.84l-.82-4.7h4.29l1.7,6.47H198.43L198.3,135Zm.44,6.3-.13-1.77h5.06l.28,1.77Zm9.51,0-.32-1.77h5.07l.49,1.77Zm6.38-11h4.19l.61,1.77h-4.42l-.48-1.77ZM216,135h4.65l.62,1.77h-4.78Zm1.78,6.3-.49-1.77h5l.62,1.77Zm5.12-11h4.19l.83,1.77h-4.33Zm1.86,4.7h4.54l.86,1.77h-4.73Zm2.46,6.3-.69-1.77h4.93l.84,1.77Zm6.39-6.3h4.49l1,1.77H234.5l-.85-1.77Zm3.16,6.3-.89-1.77h4.84l1,1.77Z"/><path class="cls-1" d="M158.63,122.43c-1.73,1.72,1,2.7,1,2.7H204.7s2.73-1,1-2.7-6.45-3-6.93-10.44v-5.93H165.57V112C165.08,119.44,160.33,120.69,158.63,122.43Z"/><path class="cls-1" d="M236.18,106.22H128.59a7.56,7.56,0,0,1-7.52-7.58h0V7.44A7.51,7.51,0,0,1,128.59,0H236.18a7.52,7.52,0,0,1,7.54,7.5V98.72a7.57,7.57,0,0,1-7.54,7.58h0ZM128.59,3.61a3.89,3.89,0,0,0-3.87,3.86v91.2a3.86,3.86,0,0,0,3.84,3.88H236.18a3.86,3.86,0,0,0,3.88-3.86V7.47a3.9,3.9,0,0,0-3.88-3.86Z"/><path class="cls-1" d="M236.18,106.22H128.59a7.56,7.56,0,0,1-7.52-7.58h0V7.44A7.51,7.51,0,0,1,128.59,0H236.18a7.52,7.52,0,0,1,7.54,7.5V98.72a7.57,7.57,0,0,1-7.54,7.58h0ZM128.59,3.61a3.89,3.89,0,0,0-3.87,3.86v91.2a3.86,3.86,0,0,0,3.84,3.88H236.18a3.86,3.86,0,0,0,3.88-3.86V7.47a3.9,3.9,0,0,0-3.88-3.86Z"/><polygon class="cls-5" points="161.12 54.81 161.44 55.26 161.12 54.81 161.12 54.81"/><path class="cls-5" d="M216.34,102.35c.42-.41-.76-.45-.35-.89-.34-.41-15.54.93-15.76.68-5.4-5.44,3.35,3.43-2-2-5.88-6-11.73-11.93-17.66-17.9a5.76,5.76,0,0,0-1.95-.85,33.49,33.49,0,0,1-5.46-1.6,20.22,20.22,0,0,1-3.93-3.33c-1.58-1.45-3-3-4.6-4.4,2-2,4.55-3.36,5.06-6.36,0-.22.36-.33.54-.49.88-.66,1.77-1.29,2.62-2,1.35-1.2,2.42-2.53,2.12-4.53,0-.23.27-.56.47-.8,1.48-1.52,2.94-3,4.36-4.51l3-.48a7.75,7.75,0,0,1-.53,1.82,4.5,4.5,0,0,0,.2,4.64c1.48,2.84,3.18,5.53,4.86,8.24.26.47,1,.65,1.54,1-.06-.56.12-1.26-.13-1.72-1.31-2.36-2.73-4.61-4.06-7-.78-1.29-1.73-2.59-1.1-4.25s1.49-3.58,2.34-5.35c1.52-3.19,1.56-3.19-1.17-5.58a2.43,2.43,0,0,0-.34-.3,2.75,2.75,0,0,0-3.48-.48c-1.13.59-2.38,1.14-3.54,1.74a3,3,0,0,1-3.85-.65c-.57-.5-1.13-1-1.69-1.56-1-.89-.82-1.73.11-2.56,2.63-2.17,5.22-4.32,7.85-6.46a2.54,2.54,0,0,1,3.33-.14c3.35,2.26,6.69,4.43,10,6.59a4.52,4.52,0,0,1,2.23,3.56c.51,4.43.83,8.87,1.61,13.25a14,14,0,0,1-2.62,11.15,15.63,15.63,0,0,1-1.42,2c-.85.88-.56,1.54.23,2.27,3.17,2.83,6.25,5.7,9.37,8.51,4.55,4.19,9.12,8.33,13.72,12.49.39.35.84.68,1.23,1a5.45,5.45,0,0,0-1.44-2c-6.29-6.2-12.63-12.35-19-18.52-.89-.84-2.35-1.72-2.49-2.72s1.08-2.16,1.65-3.25,1.09-2.12,1.67-3.24a10.45,10.45,0,0,1,.7-1c12,10.86,27.55,24.32,39.61,35.12Z"/><path class="cls-5" d="M163.23,58.66c1.54,1.49,3,3,4.62,4.42,1.13,1,1.73,1,2.76-.14.68-.74,1.36-1.51,2.11-2.18a1.59,1.59,0,0,0,.39-2.22,1.29,1.29,0,0,0-.39-.38c-3.14-3.11-6.31-6.08-9.52-9.12a1.65,1.65,0,0,0-2.35-.12,1,1,0,0,0-.19.21c-.76.76-1.46,1.56-2.21,2.31a1.68,1.68,0,0,0-.33,2.37,1.45,1.45,0,0,0,.38.36c1.58,1.46,3.14,3,4.7,4.52Z"/><path class="cls-5" d="M167.89,51.38c1.55,1.49,3.17,3,4.69,4.52a1.68,1.68,0,0,0,2.34.38,1.76,1.76,0,0,0,.42-.44c.7-.71,1.43-1.46,2.1-2.16a1.76,1.76,0,0,0,.3-2.45,3.07,3.07,0,0,0-.25-.26c-3-3-6.24-6.08-9.4-9.12a1.78,1.78,0,0,0-2.51-.17,1.59,1.59,0,0,0-.3.34c-.73.79-1.47,1.52-2.2,2.31a1.54,1.54,0,0,0-.29,2.15,1.67,1.67,0,0,0,.36.34c1.61,1.48,3.15,3,4.74,4.52Z"/><path class="cls-5" d="M163.4,61a4.51,4.51,0,0,0-.44-.54h0c-1.2-1.25-2.46-2.45-3.7-3.62-1.51-1.42-2.22-1.41-3.65.1-.54.57-1,1.17-1.58,1.67a1.69,1.69,0,0,0-.46,2.34,1.81,1.81,0,0,0,.41.42c2.77,2.71,5.58,5.42,8.46,8.11a1.52,1.52,0,0,0,2.14.18,1.31,1.31,0,0,0,.23-.24c.82-.8,1.52-1.59,2.33-2.38,1-1,.74-1.84-.17-2.73s-1.67-1.59-2.51-2.4l-1-1Z"/><path class="cls-5" d="M176.32,47.8c1.26,1.21,2.39,2.29,3.53,3.33a1.37,1.37,0,0,0,1.92.31,1.52,1.52,0,0,0,.31-.31,22.39,22.39,0,0,0,2.35-2.79,2,2,0,0,0,.12-2c-.53-.79-1.14-1.89-2.51-1.27-1.86.89-3.73,1.75-5.76,2.69Z"/><path class="cls-5" d="M169.41,41.22c1.81-1.55,3.48-3,5.13-4.44a1.69,1.69,0,0,0-.13-.4c-.65.14-1.56,0-1.89.41-1.11,1.32-3.11,2.13-3.11,4.43Z"/></svg>